<?xml version="1.0" standalone="no"?>
 <!DOCTYPE svg PUBLIC "-//W3C//DTD SVG 1.1//EN" 
 "http://www.w3.org/Graphics/SVG/1.1/DTD/svg11.dtd"> 
<svg
  xmlns:svg="http://www.w3.org/2000/svg"
  xmlns="http://www.w3.org/2000/svg"
  xmlns:xlink="http://www.w3.org/1999/xlink"
  version="1.1"
  width="3.594100cm" height="4.213860cm" viewBox="0 0 35941000 42138600">
<title>SVG Picture created as Camera Edge Cuts-Edge_Cuts.svg date 2022/02/22 21:54:55 </title>
  <desc>Picture generated by PCBNEW </desc>
<g style="fill:#000000; fill-opacity:1.000000;stroke:#000000; stroke-opacity:1.000000;
stroke-linecap:round; stroke-linejoin:round;"
 transform="translate(0 0) scale(1 1)">
</g>
<g style="fill:#000000; fill-opacity:0.0; 
stroke:#000000; stroke-width:0.000000; stroke-opacity:1; 
stroke-linecap:round; stroke-linejoin:round;">
</g>
<g style="fill:#D0D2CD; fill-opacity:0.0; 
stroke:#D0D2CD; stroke-width:0.000000; stroke-opacity:1; 
stroke-linecap:round; stroke-linejoin:round;">
</g>
<g style="fill:#D0D2CD; fill-opacity:0.0; 
stroke:#D0D2CD; stroke-width:150000.000000; stroke-opacity:1; 
stroke-linecap:round; stroke-linejoin:round;">
<path d="M2724060 26305000
L2724060 30305000
" />
<path d="M34375000 14187000
L34375000 7075000
" />
<path d="M33225940 17739260
L34375000 17739260
" />
<path d="M33225940 14187000
L34375000 14187000
" />
<path d="M1075000.000000 35575000.000000 A500000.000000 500000.000000 0.0 0 0 1575000.000000 35075000.000000" />
<path d="M1575000.000000 7075000.000000 A500000.000000 500000.000000 0.0 0 0 1075000.000000 6575000.000000" />
<path d="M34875000.000000 6575000.000000 A500000.000000 500000.000000 0.0 0 0 34375000.000000 7075000.000000" />
<path d="M34375000.000000 35075000.000000 A500000.000000 500000.000000 0.0 0 0 34875000.000000 35575000.000000" />
<path d="M75000 75000
L75000 6575000
" />
<path d="M34875000 6575000
L35875000 6575000
" />
<path d="M34375000 35075000
L34375000 17739260
" />
<path d="M35875000 35575000
L34875000 35575000
" />
<path d="M35875000 6575000
L35875000 75000
" />
<path d="M1575000 7075000
L1575000 26305000
" />
<path d="M75000 6575000
L1075000 6575000
" />
<path d="M75000 42075000
L34375000 42075000
" />
<path d="M1575000 26305000
L2724060 26305000
" />
<path d="M33225940 14187000
L33225940 17739260
" />
<path d="M34375000 75000
L75000 75000
" />
<path d="M2724060 30305000
L1575000 30305000
" />
<path d="M75000 35575000
L75000 42075000
" />
<path d="M1075000 35575000
L75000 35575000
" />
<path d="M1575000 30305000
L1575000 35075000
" />
<path d="M34375000 42075000
L35875000 42075000
" />
<path d="M35875000 75000
L34375000 75000
" />
<path d="M35875000 42075000
L35875000 35575000
" />
<g >
</g>
<g >
</g>
<g >
</g>
</g> 
</svg>
