<?xml version="1.0" standalone="no"?>
 <!DOCTYPE svg PUBLIC "-//W3C//DTD SVG 1.1//EN" 
 "http://www.w3.org/Graphics/SVG/1.1/DTD/svg11.dtd"> 
<svg
  xmlns:svg="http://www.w3.org/2000/svg"
  xmlns="http://www.w3.org/2000/svg"
  xmlns:xlink="http://www.w3.org/1999/xlink"
  version="1.1"
  width="21.000720cm" height="14.800580cm" viewBox="0 0 210007200 148005800">
<title>SVG Picture created as cameraboard-Edge_Cuts.svg date 2022/03/24 12:27:10 </title>
  <desc>Picture generated by PCBNEW </desc>
<g style="fill:#000000; fill-opacity:1.000000;stroke:#000000; stroke-opacity:1.000000;
stroke-linecap:round; stroke-linejoin:round;"
 transform="translate(0 0) scale(1 1)">
</g>
<g style="fill:#000000; fill-opacity:0.0; 
stroke:#000000; stroke-width:0.000000; stroke-opacity:1; 
stroke-linecap:round; stroke-linejoin:round;">
</g>
<g style="fill:#000000; fill-opacity:0.0; 
stroke:#000000; stroke-width:21200.000000; stroke-opacity:1; 
stroke-linecap:round; stroke-linejoin:round;">
</g>
<g style="fill:#000000; fill-opacity:0.0; 
stroke:#000000; stroke-width:150000.000000; stroke-opacity:1; 
stroke-linecap:round; stroke-linejoin:round;">
<rect x="90007200.000000" y="104005800.000000" width="108000000.000000" height="32000000.000000" rx="0.000000" />
</g>
<g style="fill:#000000; fill-opacity:0.0; 
stroke:#000000; stroke-width:21200.000000; stroke-opacity:1; 
stroke-linecap:round; stroke-linejoin:round;">
</g>
<g style="fill:#000000; fill-opacity:0.0; 
stroke:#000000; stroke-width:150000.000000; stroke-opacity:1; 
stroke-linecap:round; stroke-linejoin:round;">
<rect x="10000000.000000" y="10000000.000000" width="190007200.000000" height="128005800.000000" rx="0.000000" />
</g>
<g style="fill:#000000; fill-opacity:0.0; 
stroke:#000000; stroke-width:21200.000000; stroke-opacity:1; 
stroke-linecap:round; stroke-linejoin:round;">
</g>
<g style="fill:#000000; fill-opacity:0.0; 
stroke:#000000; stroke-width:150000.000000; stroke-opacity:1; 
stroke-linecap:round; stroke-linejoin:round;">
<rect x="12000000.000000" y="12000000.000000" width="186007200.000000" height="124005800.000000" rx="0.000000" />
</g>
<g style="fill:#000000; fill-opacity:0.0; 
stroke:#000000; stroke-width:21200.000000; stroke-opacity:1; 
stroke-linecap:round; stroke-linejoin:round;">
</g>
<g style="fill:#000000; fill-opacity:0.0; 
stroke:#000000; stroke-width:150000.000000; stroke-opacity:1; 
stroke-linecap:round; stroke-linejoin:round;">
<path d="M60000000 12000000
L60000000 10000000
" />
</g>
<g style="fill:#000000; fill-opacity:0.0; 
stroke:#000000; stroke-width:21200.000000; stroke-opacity:1; 
stroke-linecap:round; stroke-linejoin:round;">
</g>
<g style="fill:#000000; fill-opacity:0.0; 
stroke:#000000; stroke-width:150000.000000; stroke-opacity:1; 
stroke-linecap:round; stroke-linejoin:round;">
<path d="M110000000 12000000
L110000000 10000000
" />
</g>
<g style="fill:#000000; fill-opacity:0.0; 
stroke:#000000; stroke-width:21200.000000; stroke-opacity:1; 
stroke-linecap:round; stroke-linejoin:round;">
</g>
<g style="fill:#000000; fill-opacity:0.0; 
stroke:#000000; stroke-width:150000.000000; stroke-opacity:1; 
stroke-linecap:round; stroke-linejoin:round;">
<path d="M160000000 12000000
L160000000 10000000
" />
</g>
<g style="fill:#000000; fill-opacity:0.0; 
stroke:#000000; stroke-width:21200.000000; stroke-opacity:1; 
stroke-linecap:round; stroke-linejoin:round;">
</g>
<g style="fill:#000000; fill-opacity:0.0; 
stroke:#000000; stroke-width:150000.000000; stroke-opacity:1; 
stroke-linecap:round; stroke-linejoin:round;">
<text x="35000000.000000" y="11650000.000000"
textLength="1238096.000000" font-size="1733333.000000" lengthAdjust="spacingAndGlyphs"
text-anchor="start" opacity="0">1</text>
<g class="stroked-text"><desc>1</desc>
<path d="M36065476 11588095
L35322619 11588095
" />
<path d="M35694047 11588095
L35694047 10288095
L35570238 10473809
L35446428 10597619
L35322619 10659523
" />
</g></g>
<g style="fill:#000000; fill-opacity:0.0; 
stroke:#000000; stroke-width:21200.000000; stroke-opacity:1; 
stroke-linecap:round; stroke-linejoin:round;">
</g>
<g style="fill:#000000; fill-opacity:0.0; 
stroke:#000000; stroke-width:150000.000000; stroke-opacity:1; 
stroke-linecap:round; stroke-linejoin:round;">
<text x="85000000.000000" y="11650000.000000"
textLength="1388095.000000" font-size="1733333.000000" lengthAdjust="spacingAndGlyphs"
text-anchor="start" opacity="0">2</text>
<g class="stroked-text"><desc>2</desc>
<path d="M85322619 10411904
L85384523 10350000
L85508333 10288095
L85817857 10288095
L85941666 10350000
L86003571 10411904
L86065476 10535714
L86065476 10659523
L86003571 10845238
L85260714 11588095
L86065476 11588095
" />
</g></g>
<g style="fill:#000000; fill-opacity:0.0; 
stroke:#000000; stroke-width:21200.000000; stroke-opacity:1; 
stroke-linecap:round; stroke-linejoin:round;">
</g>
<g style="fill:#000000; fill-opacity:0.0; 
stroke:#000000; stroke-width:150000.000000; stroke-opacity:1; 
stroke-linecap:round; stroke-linejoin:round;">
<text x="135000000.000000" y="11650000.000000"
textLength="1388095.000000" font-size="1733333.000000" lengthAdjust="spacingAndGlyphs"
text-anchor="start" opacity="0">3</text>
<g class="stroked-text"><desc>3</desc>
<path d="M135260714 10288095
L136065476 10288095
L135632142 10783333
L135817857 10783333
L135941666 10845238
L136003571 10907142
L136065476 11030952
L136065476 11340476
L136003571 11464285
L135941666 11526190
L135817857 11588095
L135446428 11588095
L135322619 11526190
L135260714 11464285
" />
</g></g>
<g style="fill:#000000; fill-opacity:0.0; 
stroke:#000000; stroke-width:21200.000000; stroke-opacity:1; 
stroke-linecap:round; stroke-linejoin:round;">
</g>
<g style="fill:#000000; fill-opacity:0.0; 
stroke:#000000; stroke-width:150000.000000; stroke-opacity:1; 
stroke-linecap:round; stroke-linejoin:round;">
<text x="185000000.000000" y="11650000.000000"
textLength="1388095.000000" font-size="1733333.000000" lengthAdjust="spacingAndGlyphs"
text-anchor="start" opacity="0">4</text>
<g class="stroked-text"><desc>4</desc>
<path d="M185941666 10721428
L185941666 11588095
" />
<path d="M185632142 10226190
L185322619 11154761
L186127380 11154761
" />
</g></g>
<g style="fill:#000000; fill-opacity:0.0; 
stroke:#000000; stroke-width:21200.000000; stroke-opacity:1; 
stroke-linecap:round; stroke-linejoin:round;">
</g>
<g style="fill:#000000; fill-opacity:0.0; 
stroke:#000000; stroke-width:150000.000000; stroke-opacity:1; 
stroke-linecap:round; stroke-linejoin:round;">
<path d="M60000000 136005800
L60000000 138005800
" />
</g>
<g style="fill:#000000; fill-opacity:0.0; 
stroke:#000000; stroke-width:21200.000000; stroke-opacity:1; 
stroke-linecap:round; stroke-linejoin:round;">
</g>
<g style="fill:#000000; fill-opacity:0.0; 
stroke:#000000; stroke-width:150000.000000; stroke-opacity:1; 
stroke-linecap:round; stroke-linejoin:round;">
<path d="M110000000 136005800
L110000000 138005800
" />
</g>
<g style="fill:#000000; fill-opacity:0.0; 
stroke:#000000; stroke-width:21200.000000; stroke-opacity:1; 
stroke-linecap:round; stroke-linejoin:round;">
</g>
<g style="fill:#000000; fill-opacity:0.0; 
stroke:#000000; stroke-width:150000.000000; stroke-opacity:1; 
stroke-linecap:round; stroke-linejoin:round;">
<path d="M160000000 136005800
L160000000 138005800
" />
</g>
<g style="fill:#000000; fill-opacity:0.0; 
stroke:#000000; stroke-width:21200.000000; stroke-opacity:1; 
stroke-linecap:round; stroke-linejoin:round;">
</g>
<g style="fill:#000000; fill-opacity:0.0; 
stroke:#000000; stroke-width:150000.000000; stroke-opacity:1; 
stroke-linecap:round; stroke-linejoin:round;">
<text x="35000000.000000" y="137655800.000000"
textLength="1388095.000000" font-size="1733333.000000" lengthAdjust="spacingAndGlyphs"
text-anchor="start" opacity="0">1</text>
<g class="stroked-text"><desc>1</desc>
<path d="M36065476 137593895
L35322619 137593895
" />
<path d="M35694047 137593895
L35694047 136293895
L35570238 136479609
L35446428 136603419
L35322619 136665323
" />
</g></g>
<g style="fill:#000000; fill-opacity:0.0; 
stroke:#000000; stroke-width:21200.000000; stroke-opacity:1; 
stroke-linecap:round; stroke-linejoin:round;">
</g>
<g style="fill:#000000; fill-opacity:0.0; 
stroke:#000000; stroke-width:150000.000000; stroke-opacity:1; 
stroke-linecap:round; stroke-linejoin:round;">
<text x="85000000.000000" y="137655800.000000"
textLength="1388095.000000" font-size="1733333.000000" lengthAdjust="spacingAndGlyphs"
text-anchor="start" opacity="0">2</text>
<g class="stroked-text"><desc>2</desc>
<path d="M85322619 136417704
L85384523 136355800
L85508333 136293895
L85817857 136293895
L85941666 136355800
L86003571 136417704
L86065476 136541514
L86065476 136665323
L86003571 136851038
L85260714 137593895
L86065476 137593895
" />
</g></g>
<g style="fill:#000000; fill-opacity:0.0; 
stroke:#000000; stroke-width:21200.000000; stroke-opacity:1; 
stroke-linecap:round; stroke-linejoin:round;">
</g>
<g style="fill:#000000; fill-opacity:0.0; 
stroke:#000000; stroke-width:150000.000000; stroke-opacity:1; 
stroke-linecap:round; stroke-linejoin:round;">
<text x="135000000.000000" y="137655800.000000"
textLength="1388095.000000" font-size="1733333.000000" lengthAdjust="spacingAndGlyphs"
text-anchor="start" opacity="0">3</text>
<g class="stroked-text"><desc>3</desc>
<path d="M135260714 136293895
L136065476 136293895
L135632142 136789133
L135817857 136789133
L135941666 136851038
L136003571 136912942
L136065476 137036752
L136065476 137346276
L136003571 137470085
L135941666 137531990
L135817857 137593895
L135446428 137593895
L135322619 137531990
L135260714 137470085
" />
</g></g>
<g style="fill:#000000; fill-opacity:0.0; 
stroke:#000000; stroke-width:21200.000000; stroke-opacity:1; 
stroke-linecap:round; stroke-linejoin:round;">
</g>
<g style="fill:#000000; fill-opacity:0.0; 
stroke:#000000; stroke-width:150000.000000; stroke-opacity:1; 
stroke-linecap:round; stroke-linejoin:round;">
<text x="185000000.000000" y="137655800.000000"
textLength="1388095.000000" font-size="1733333.000000" lengthAdjust="spacingAndGlyphs"
text-anchor="start" opacity="0">4</text>
<g class="stroked-text"><desc>4</desc>
<path d="M185941666 136727228
L185941666 137593895
" />
<path d="M185632142 136231990
L185322619 137160561
L186127380 137160561
" />
</g></g>
<g style="fill:#000000; fill-opacity:0.0; 
stroke:#000000; stroke-width:21200.000000; stroke-opacity:1; 
stroke-linecap:round; stroke-linejoin:round;">
</g>
<g style="fill:#000000; fill-opacity:0.0; 
stroke:#000000; stroke-width:150000.000000; stroke-opacity:1; 
stroke-linecap:round; stroke-linejoin:round;">
<path d="M10000000 60000000
L12000000 60000000
" />
</g>
<g style="fill:#000000; fill-opacity:0.0; 
stroke:#000000; stroke-width:21200.000000; stroke-opacity:1; 
stroke-linecap:round; stroke-linejoin:round;">
</g>
<g style="fill:#000000; fill-opacity:0.0; 
stroke:#000000; stroke-width:150000.000000; stroke-opacity:1; 
stroke-linecap:round; stroke-linejoin:round;">
<path d="M10000000 110000000
L12000000 110000000
" />
</g>
<g style="fill:#000000; fill-opacity:0.0; 
stroke:#000000; stroke-width:21200.000000; stroke-opacity:1; 
stroke-linecap:round; stroke-linejoin:round;">
</g>
<g style="fill:#000000; fill-opacity:0.0; 
stroke:#000000; stroke-width:150000.000000; stroke-opacity:1; 
stroke-linecap:round; stroke-linejoin:round;">
<text x="11000000.000000" y="35650000.000000"
textLength="1264286.000000" font-size="1733333.000000" lengthAdjust="spacingAndGlyphs"
text-anchor="middle" opacity="0">A</text>
<g class="stroked-text"><desc>A</desc>
<path d="M10690476 35216666
L11309523 35216666
" />
<path d="M10566666 35588095
L11000000 34288095
L11433333 35588095
" />
</g></g>
<g style="fill:#000000; fill-opacity:0.0; 
stroke:#000000; stroke-width:21200.000000; stroke-opacity:1; 
stroke-linecap:round; stroke-linejoin:round;">
</g>
<g style="fill:#000000; fill-opacity:0.0; 
stroke:#000000; stroke-width:150000.000000; stroke-opacity:1; 
stroke-linecap:round; stroke-linejoin:round;">
<text x="11000000.000000" y="85650000.000000"
textLength="1450000.000000" font-size="1733333.000000" lengthAdjust="spacingAndGlyphs"
text-anchor="middle" opacity="0">B</text>
<g class="stroked-text"><desc>B</desc>
<path d="M11092857 84907142
L11278571 84969047
L11340476 85030952
L11402380 85154761
L11402380 85340476
L11340476 85464285
L11278571 85526190
L11154761 85588095
L10659523 85588095
L10659523 84288095
L11092857 84288095
L11216666 84350000
L11278571 84411904
L11340476 84535714
L11340476 84659523
L11278571 84783333
L11216666 84845238
L11092857 84907142
L10659523 84907142
" />
</g></g>
<g style="fill:#000000; fill-opacity:0.0; 
stroke:#000000; stroke-width:21200.000000; stroke-opacity:1; 
stroke-linecap:round; stroke-linejoin:round;">
</g>
<g style="fill:#000000; fill-opacity:0.0; 
stroke:#000000; stroke-width:150000.000000; stroke-opacity:1; 
stroke-linecap:round; stroke-linejoin:round;">
<text x="11000000.000000" y="135650000.000000"
textLength="1450000.000000" font-size="1733333.000000" lengthAdjust="spacingAndGlyphs"
text-anchor="middle" opacity="0">C</text>
<g class="stroked-text"><desc>C</desc>
<path d="M11402380 135464285
L11340476 135526190
L11154761 135588095
L11030952 135588095
L10845238 135526190
L10721428 135402380
L10659523 135278571
L10597619 135030952
L10597619 134845238
L10659523 134597619
L10721428 134473809
L10845238 134350000
L11030952 134288095
L11154761 134288095
L11340476 134350000
L11402380 134411904
" />
</g></g>
<g style="fill:#000000; fill-opacity:0.0; 
stroke:#000000; stroke-width:21200.000000; stroke-opacity:1; 
stroke-linecap:round; stroke-linejoin:round;">
</g>
<g style="fill:#000000; fill-opacity:0.0; 
stroke:#000000; stroke-width:150000.000000; stroke-opacity:1; 
stroke-linecap:round; stroke-linejoin:round;">
<path d="M200007200 60000000
L198007200 60000000
" />
</g>
<g style="fill:#000000; fill-opacity:0.0; 
stroke:#000000; stroke-width:21200.000000; stroke-opacity:1; 
stroke-linecap:round; stroke-linejoin:round;">
</g>
<g style="fill:#000000; fill-opacity:0.0; 
stroke:#000000; stroke-width:150000.000000; stroke-opacity:1; 
stroke-linecap:round; stroke-linejoin:round;">
<path d="M200007200 110000000
L198007200 110000000
" />
</g>
<g style="fill:#000000; fill-opacity:0.0; 
stroke:#000000; stroke-width:21200.000000; stroke-opacity:1; 
stroke-linecap:round; stroke-linejoin:round;">
</g>
<g style="fill:#000000; fill-opacity:0.0; 
stroke:#000000; stroke-width:150000.000000; stroke-opacity:1; 
stroke-linecap:round; stroke-linejoin:round;">
<text x="199007200.000000" y="35650000.000000"
textLength="1264286.000000" font-size="1733333.000000" lengthAdjust="spacingAndGlyphs"
text-anchor="middle" opacity="0">A</text>
<g class="stroked-text"><desc>A</desc>
<path d="M198697676 35216666
L199316723 35216666
" />
<path d="M198573866 35588095
L199007200 34288095
L199440533 35588095
" />
</g></g>
<g style="fill:#000000; fill-opacity:0.0; 
stroke:#000000; stroke-width:21200.000000; stroke-opacity:1; 
stroke-linecap:round; stroke-linejoin:round;">
</g>
<g style="fill:#000000; fill-opacity:0.0; 
stroke:#000000; stroke-width:150000.000000; stroke-opacity:1; 
stroke-linecap:round; stroke-linejoin:round;">
<text x="199007200.000000" y="85650000.000000"
textLength="1450000.000000" font-size="1733333.000000" lengthAdjust="spacingAndGlyphs"
text-anchor="middle" opacity="0">B</text>
<g class="stroked-text"><desc>B</desc>
<path d="M199100057 84907142
L199285771 84969047
L199347676 85030952
L199409580 85154761
L199409580 85340476
L199347676 85464285
L199285771 85526190
L199161961 85588095
L198666723 85588095
L198666723 84288095
L199100057 84288095
L199223866 84350000
L199285771 84411904
L199347676 84535714
L199347676 84659523
L199285771 84783333
L199223866 84845238
L199100057 84907142
L198666723 84907142
" />
</g></g>
<g style="fill:#000000; fill-opacity:0.0; 
stroke:#000000; stroke-width:21200.000000; stroke-opacity:1; 
stroke-linecap:round; stroke-linejoin:round;">
</g>
<g style="fill:#000000; fill-opacity:0.0; 
stroke:#000000; stroke-width:150000.000000; stroke-opacity:1; 
stroke-linecap:round; stroke-linejoin:round;">
<text x="199007200.000000" y="135650000.000000"
textLength="1450000.000000" font-size="1733333.000000" lengthAdjust="spacingAndGlyphs"
text-anchor="middle" opacity="0">C</text>
<g class="stroked-text"><desc>C</desc>
<path d="M199409580 135464285
L199347676 135526190
L199161961 135588095
L199038152 135588095
L198852438 135526190
L198728628 135402380
L198666723 135278571
L198604819 135030952
L198604819 134845238
L198666723 134597619
L198728628 134473809
L198852438 134350000
L199038152 134288095
L199161961 134288095
L199347676 134350000
L199409580 134411904
" />
</g></g>
<g style="fill:#000000; fill-opacity:0.0; 
stroke:#000000; stroke-width:21200.000000; stroke-opacity:1; 
stroke-linecap:round; stroke-linejoin:round;">
</g>
<g style="fill:#000000; fill-opacity:0.0; 
stroke:#000000; stroke-width:150000.000000; stroke-opacity:1; 
stroke-linecap:round; stroke-linejoin:round;">
<text x="113007200.000000" y="131855800.000000"
textLength="7007143.000000" font-size="2000000.000000" lengthAdjust="spacingAndGlyphs"
text-anchor="start" opacity="0">Date: </text>
<g class="stroked-text"><desc>Date: </desc>
<path d="M113439342 131784371
L113439342 130284371
L113796485 130284371
L114010771 130355800
L114153628 130498657
L114225057 130641514
L114296485 130927228
L114296485 131141514
L114225057 131427228
L114153628 131570085
L114010771 131712942
L113796485 131784371
L113439342 131784371
" />
<path d="M115582200 131784371
L115582200 130998657
L115510771 130855800
L115367914 130784371
L115082200 130784371
L114939342 130855800
" />
<path d="M115582200 131712942
L115439342 131784371
L115082200 131784371
L114939342 131712942
L114867914 131570085
L114867914 131427228
L114939342 131284371
L115082200 131212942
L115439342 131212942
L115582200 131141514
" />
<path d="M116082200 130784371
L116653628 130784371
" />
<path d="M116296485 130284371
L116296485 131570085
L116367914 131712942
L116510771 131784371
L116653628 131784371
" />
<path d="M117725057 131712942
L117582200 131784371
L117296485 131784371
L117153628 131712942
L117082200 131570085
L117082200 130998657
L117153628 130855800
L117296485 130784371
L117582200 130784371
L117725057 130855800
L117796485 130998657
L117796485 131141514
L117082200 131284371
" />
<path d="M118439342 131641514
L118510771 131712942
L118439342 131784371
L118367914 131712942
L118439342 131641514
L118439342 131784371
" />
<path d="M118439342 130855800
L118510771 130927228
L118439342 130998657
L118367914 130927228
L118439342 130855800
L118439342 130998657
" />
</g></g>
<g style="fill:#000000; fill-opacity:0.0; 
stroke:#000000; stroke-width:21200.000000; stroke-opacity:1; 
stroke-linecap:round; stroke-linejoin:round;">
</g>
<g style="fill:#000000; fill-opacity:0.0; 
stroke:#000000; stroke-width:150000.000000; stroke-opacity:1; 
stroke-linecap:round; stroke-linejoin:round;">
<path d="M90007200 132505800
L198007200 132505800
" />
</g>
<g style="fill:#000000; fill-opacity:0.0; 
stroke:#000000; stroke-width:21200.000000; stroke-opacity:1; 
stroke-linecap:round; stroke-linejoin:round;">
</g>
<g style="fill:#000000; fill-opacity:0.0; 
stroke:#000000; stroke-width:150000.000000; stroke-opacity:1; 
stroke-linecap:round; stroke-linejoin:round;">
<text x="91007200.000000" y="134655800.000000"
textLength="31078571.000000" font-size="2000000.000000" lengthAdjust="spacingAndGlyphs"
text-anchor="start" opacity="0">KiCad E.D.A.  kicad (6.0.4)</text>
<g class="stroked-text"><desc>KiCad E.D.A.  kicad (6.0.4)</desc>
<path d="M91439342 134584371
L91439342 133084371
" />
<path d="M92296485 134584371
L91653628 133727228
" />
<path d="M92296485 133084371
L91439342 133941514
" />
<path d="M92939342 134584371
L92939342 133584371
" />
<path d="M92939342 133084371
L92867914 133155800
L92939342 133227228
L93010771 133155800
L92939342 133084371
L92939342 133227228
" />
<path d="M94510771 134441514
L94439342 134512942
L94225057 134584371
L94082200 134584371
L93867914 134512942
L93725057 134370085
L93653628 134227228
L93582200 133941514
L93582200 133727228
L93653628 133441514
L93725057 133298657
L93867914 133155800
L94082200 133084371
L94225057 133084371
L94439342 133155800
L94510771 133227228
" />
<path d="M95796485 134584371
L95796485 133798657
L95725057 133655800
L95582200 133584371
L95296485 133584371
L95153628 133655800
" />
<path d="M95796485 134512942
L95653628 134584371
L95296485 134584371
L95153628 134512942
L95082200 134370085
L95082200 134227228
L95153628 134084371
L95296485 134012942
L95653628 134012942
L95796485 133941514
" />
<path d="M97153628 134584371
L97153628 133084371
" />
<path d="M97153628 134512942
L97010771 134584371
L96725057 134584371
L96582200 134512942
L96510771 134441514
L96439342 134298657
L96439342 133870085
L96510771 133727228
L96582200 133655800
L96725057 133584371
L97010771 133584371
L97153628 133655800
" />
<path d="M99010771 133798657
L99510771 133798657
" />
<path d="M99725057 134584371
L99010771 134584371
L99010771 133084371
L99725057 133084371
" />
<path d="M100367914 134441514
L100439342 134512942
L100367914 134584371
L100296485 134512942
L100367914 134441514
L100367914 134584371
" />
<path d="M101082200 134584371
L101082200 133084371
L101439342 133084371
L101653628 133155800
L101796485 133298657
L101867914 133441514
L101939342 133727228
L101939342 133941514
L101867914 134227228
L101796485 134370085
L101653628 134512942
L101439342 134584371
L101082200 134584371
" />
<path d="M102582200 134441514
L102653628 134512942
L102582200 134584371
L102510771 134512942
L102582200 134441514
L102582200 134584371
" />
<path d="M103225057 134155800
L103939342 134155800
" />
<path d="M103082200 134584371
L103582200 133084371
L104082200 134584371
" />
<path d="M104582200 134441514
L104653628 134512942
L104582200 134584371
L104510771 134512942
L104582200 134441514
L104582200 134584371
" />
<path d="M107582200 134584371
L107582200 133084371
" />
<path d="M107725057 134012942
L108153628 134584371
" />
<path d="M108153628 133584371
L107582200 134155800
" />
<path d="M108796485 134584371
L108796485 133584371
" />
<path d="M108796485 133084371
L108725057 133155800
L108796485 133227228
L108867914 133155800
L108796485 133084371
L108796485 133227228
" />
<path d="M110153628 134512942
L110010771 134584371
L109725057 134584371
L109582200 134512942
L109510771 134441514
L109439342 134298657
L109439342 133870085
L109510771 133727228
L109582200 133655800
L109725057 133584371
L110010771 133584371
L110153628 133655800
" />
<path d="M111439342 134584371
L111439342 133798657
L111367914 133655800
L111225057 133584371
L110939342 133584371
L110796485 133655800
" />
<path d="M111439342 134512942
L111296485 134584371
L110939342 134584371
L110796485 134512942
L110725057 134370085
L110725057 134227228
L110796485 134084371
L110939342 134012942
L111296485 134012942
L111439342 133941514
" />
<path d="M112796485 134584371
L112796485 133084371
" />
<path d="M112796485 134512942
L112653628 134584371
L112367914 134584371
L112225057 134512942
L112153628 134441514
L112082200 134298657
L112082200 133870085
L112153628 133727228
L112225057 133655800
L112367914 133584371
L112653628 133584371
L112796485 133655800
" />
<path d="M115082200 135155800
L115010771 135084371
L114867914 134870085
L114796485 134727228
L114725057 134512942
L114653628 134155800
L114653628 133870085
L114725057 133512942
L114796485 133298657
L114867914 133155800
L115010771 132941514
L115082200 132870085
" />
<path d="M116296485 133084371
L116010771 133084371
L115867914 133155800
L115796485 133227228
L115653628 133441514
L115582200 133727228
L115582200 134298657
L115653628 134441514
L115725057 134512942
L115867914 134584371
L116153628 134584371
L116296485 134512942
L116367914 134441514
L116439342 134298657
L116439342 133941514
L116367914 133798657
L116296485 133727228
L116153628 133655800
L115867914 133655800
L115725057 133727228
L115653628 133798657
L115582200 133941514
" />
<path d="M117082200 134441514
L117153628 134512942
L117082200 134584371
L117010771 134512942
L117082200 134441514
L117082200 134584371
" />
<path d="M118082200 133084371
L118225057 133084371
L118367914 133155800
L118439342 133227228
L118510771 133370085
L118582200 133655800
L118582200 134012942
L118510771 134298657
L118439342 134441514
L118367914 134512942
L118225057 134584371
L118082200 134584371
L117939342 134512942
L117867914 134441514
L117796485 134298657
L117725057 134012942
L117725057 133655800
L117796485 133370085
L117867914 133227228
L117939342 133155800
L118082200 133084371
" />
<path d="M119225057 134441514
L119296485 134512942
L119225057 134584371
L119153628 134512942
L119225057 134441514
L119225057 134584371
" />
<path d="M120582200 133584371
L120582200 134584371
" />
<path d="M120225057 133012942
L119867914 134084371
L120796485 134084371
" />
<path d="M121225057 135155800
L121296485 135084371
L121439342 134870085
L121510771 134727228
L121582200 134512942
L121653628 134155800
L121653628 133870085
L121582200 133512942
L121510771 133298657
L121439342 133155800
L121296485 132941514
L121225057 132870085
" />
</g></g>
<g style="fill:#000000; fill-opacity:0.0; 
stroke:#000000; stroke-width:21200.000000; stroke-opacity:1; 
stroke-linecap:round; stroke-linejoin:round;">
</g>
<g style="fill:#000000; fill-opacity:0.0; 
stroke:#000000; stroke-width:150000.000000; stroke-opacity:1; 
stroke-linecap:round; stroke-linejoin:round;">
<path d="M90007200 129505800
L198007200 129505800
" />
</g>
<g style="fill:#000000; fill-opacity:0.0; 
stroke:#000000; stroke-width:21200.000000; stroke-opacity:1; 
stroke-linecap:round; stroke-linejoin:round;">
</g>
<g style="fill:#000000; fill-opacity:0.0; 
stroke:#000000; stroke-width:300000.000000; stroke-opacity:1; 
stroke-linecap:round; stroke-linejoin:round;">
<text x="176007200.000000" y="131855800.000000"
textLength="5935714.000000" font-size="2000000.000000" lengthAdjust="spacingAndGlyphs"
text-anchor="start" opacity="0">Rev: </text>
<g class="stroked-text"><desc>Rev: </desc>
<path d="M177416485 131784371
L176916485 131070085
" />
<path d="M176559342 131784371
L176559342 130284371
L177130771 130284371
L177273628 130355800
L177345057 130427228
L177416485 130570085
L177416485 130784371
L177345057 130927228
L177273628 130998657
L177130771 131070085
L176559342 131070085
" />
<path d="M178630771 131712942
L178487914 131784371
L178202200 131784371
L178059342 131712942
L177987914 131570085
L177987914 130998657
L178059342 130855800
L178202200 130784371
L178487914 130784371
L178630771 130855800
L178702200 130998657
L178702200 131141514
L177987914 131284371
" />
<path d="M179202200 130784371
L179559342 131784371
L179916485 130784371
" />
<path d="M180487914 131641514
L180559342 131712942
L180487914 131784371
L180416485 131712942
L180487914 131641514
L180487914 131784371
" />
<path d="M180487914 130855800
L180559342 130927228
L180487914 130998657
L180416485 130927228
L180487914 130855800
L180487914 130998657
" />
</g></g>
<g style="fill:#000000; fill-opacity:0.0; 
stroke:#000000; stroke-width:21200.000000; stroke-opacity:1; 
stroke-linecap:round; stroke-linejoin:round;">
</g>
<g style="fill:#000000; fill-opacity:0.0; 
stroke:#000000; stroke-width:150000.000000; stroke-opacity:1; 
stroke-linecap:round; stroke-linejoin:round;">
<text x="91007200.000000" y="131855800.000000"
textLength="9604286.000000" font-size="2000000.000000" lengthAdjust="spacingAndGlyphs"
text-anchor="start" opacity="0">Size: A5</text>
<g class="stroked-text"><desc>Size: A5</desc>
<path d="M91367914 131712942
L91582200 131784371
L91939342 131784371
L92082200 131712942
L92153628 131641514
L92225057 131498657
L92225057 131355800
L92153628 131212942
L92082200 131141514
L91939342 131070085
L91653628 130998657
L91510771 130927228
L91439342 130855800
L91367914 130712942
L91367914 130570085
L91439342 130427228
L91510771 130355800
L91653628 130284371
L92010771 130284371
L92225057 130355800
" />
<path d="M92867914 131784371
L92867914 130784371
" />
<path d="M92867914 130284371
L92796485 130355800
L92867914 130427228
L92939342 130355800
L92867914 130284371
L92867914 130427228
" />
<path d="M93439342 130784371
L94225057 130784371
L93439342 131784371
L94225057 131784371
" />
<path d="M95367914 131712942
L95225057 131784371
L94939342 131784371
L94796485 131712942
L94725057 131570085
L94725057 130998657
L94796485 130855800
L94939342 130784371
L95225057 130784371
L95367914 130855800
L95439342 130998657
L95439342 131141514
L94725057 131284371
" />
<path d="M96082200 131641514
L96153628 131712942
L96082200 131784371
L96010771 131712942
L96082200 131641514
L96082200 131784371
" />
<path d="M96082200 130855800
L96153628 130927228
L96082200 130998657
L96010771 130927228
L96082200 130855800
L96082200 130998657
" />
<path d="M97867914 131355800
L98582200 131355800
" />
<path d="M97725057 131784371
L98225057 130284371
L98725057 131784371
" />
<path d="M99939342 130284371
L99225057 130284371
L99153628 130998657
L99225057 130927228
L99367914 130855800
L99725057 130855800
L99867914 130927228
L99939342 130998657
L100010771 131141514
L100010771 131498657
L99939342 131641514
L99867914 131712942
L99725057 131784371
L99367914 131784371
L99225057 131712942
L99153628 131641514
" />
</g></g>
<g style="fill:#000000; fill-opacity:0.0; 
stroke:#000000; stroke-width:21200.000000; stroke-opacity:1; 
stroke-linecap:round; stroke-linejoin:round;">
</g>
<g style="fill:#000000; fill-opacity:0.0; 
stroke:#000000; stroke-width:150000.000000; stroke-opacity:1; 
stroke-linecap:round; stroke-linejoin:round;">
<text x="176007200.000000" y="134655800.000000"
textLength="8507143.000000" font-size="2000000.000000" lengthAdjust="spacingAndGlyphs"
text-anchor="start" opacity="0">Id: 1/1</text>
<g class="stroked-text"><desc>Id: 1/1</desc>
<path d="M176439342 134584371
L176439342 133084371
" />
<path d="M177796485 134584371
L177796485 133084371
" />
<path d="M177796485 134512942
L177653628 134584371
L177367914 134584371
L177225057 134512942
L177153628 134441514
L177082200 134298657
L177082200 133870085
L177153628 133727228
L177225057 133655800
L177367914 133584371
L177653628 133584371
L177796485 133655800
" />
<path d="M178510771 134441514
L178582200 134512942
L178510771 134584371
L178439342 134512942
L178510771 134441514
L178510771 134584371
" />
<path d="M178510771 133655800
L178582200 133727228
L178510771 133798657
L178439342 133727228
L178510771 133655800
L178510771 133798657
" />
<path d="M181153628 134584371
L180296485 134584371
" />
<path d="M180725057 134584371
L180725057 133084371
L180582200 133298657
L180439342 133441514
L180296485 133512942
" />
<path d="M182867914 133012942
L181582200 134941514
" />
<path d="M184153628 134584371
L183296485 134584371
" />
<path d="M183725057 134584371
L183725057 133084371
L183582200 133298657
L183439342 133441514
L183296485 133512942
" />
</g></g>
<g style="fill:#000000; fill-opacity:0.0; 
stroke:#000000; stroke-width:21200.000000; stroke-opacity:1; 
stroke-linecap:round; stroke-linejoin:round;">
</g>
<g style="fill:#000000; fill-opacity:0.0; 
stroke:#000000; stroke-width:150000.000000; stroke-opacity:1; 
stroke-linecap:round; stroke-linejoin:round;">
<path d="M90007200 125505800
L198007200 125505800
" />
</g>
<g style="fill:#000000; fill-opacity:0.0; 
stroke:#000000; stroke-width:21200.000000; stroke-opacity:1; 
stroke-linecap:round; stroke-linejoin:round;">
</g>
<g style="fill:#000000; fill-opacity:0.0; 
stroke:#000000; stroke-width:400000.000000; stroke-opacity:1; 
stroke-linecap:round; stroke-linejoin:round;">
<text x="91007200.000000" y="128305800.000000"
textLength="9409643.000000" font-size="2666666.000000" lengthAdjust="spacingAndGlyphs"
text-anchor="start" opacity="0">Title: </text>
<g class="stroked-text"><desc>Title: </desc>
<path d="M91719580 126210561
L92862438 126210561
" />
<path d="M92041009 128210561
L92291009 126210561
" />
<path d="M93279104 128210561
L93445771 126877228
" />
<path d="M93529104 126210561
L93421961 126305800
L93505295 126401038
L93612438 126305800
L93529104 126210561
L93505295 126401038
" />
<path d="M94112438 126877228
L94874342 126877228
" />
<path d="M94481485 126210561
L94267200 127924847
L94338628 128115323
L94517200 128210561
L94707676 128210561
" />
<path d="M95660057 128210561
L95481485 128115323
L95410057 127924847
L95624342 126210561
" />
<path d="M97195771 128115323
L96993390 128210561
L96612438 128210561
L96433866 128115323
L96362438 127924847
L96457676 127162942
L96576723 126972466
L96779104 126877228
L97160057 126877228
L97338628 126972466
L97410057 127162942
L97386247 127353419
L96410057 127543895
" />
<path d="M98160057 128020085
L98243390 128115323
L98136247 128210561
L98052914 128115323
L98160057 128020085
L98136247 128210561
" />
<path d="M98291009 126972466
L98374342 127067704
L98267200 127162942
L98183866 127067704
L98291009 126972466
L98267200 127162942
" />
</g></g>
<g style="fill:#000000; fill-opacity:0.0; 
stroke:#000000; stroke-width:21200.000000; stroke-opacity:1; 
stroke-linecap:round; stroke-linejoin:round;">
</g>
<g style="fill:#000000; fill-opacity:0.0; 
stroke:#000000; stroke-width:150000.000000; stroke-opacity:1; 
stroke-linecap:round; stroke-linejoin:round;">
<text x="91007200.000000" y="124455800.000000"
textLength="32805714.000000" font-size="2000000.000000" lengthAdjust="spacingAndGlyphs"
text-anchor="start" opacity="0">File: cameraboard.kicad_pcb</text>
<g class="stroked-text"><desc>File: cameraboard.kicad_pcb</desc>
<path d="M91939342 123598657
L91439342 123598657
" />
<path d="M91439342 124384371
L91439342 122884371
L92153628 122884371
" />
<path d="M92725057 124384371
L92725057 123384371
" />
<path d="M92725057 122884371
L92653628 122955800
L92725057 123027228
L92796485 122955800
L92725057 122884371
L92725057 123027228
" />
<path d="M93653628 124384371
L93510771 124312942
L93439342 124170085
L93439342 122884371
" />
<path d="M94796485 124312942
L94653628 124384371
L94367914 124384371
L94225057 124312942
L94153628 124170085
L94153628 123598657
L94225057 123455800
L94367914 123384371
L94653628 123384371
L94796485 123455800
L94867914 123598657
L94867914 123741514
L94153628 123884371
" />
<path d="M95510771 124241514
L95582200 124312942
L95510771 124384371
L95439342 124312942
L95510771 124241514
L95510771 124384371
" />
<path d="M95510771 123455800
L95582200 123527228
L95510771 123598657
L95439342 123527228
L95510771 123455800
L95510771 123598657
" />
<path d="M98010771 124312942
L97867914 124384371
L97582200 124384371
L97439342 124312942
L97367914 124241514
L97296485 124098657
L97296485 123670085
L97367914 123527228
L97439342 123455800
L97582200 123384371
L97867914 123384371
L98010771 123455800
" />
<path d="M99296485 124384371
L99296485 123598657
L99225057 123455800
L99082200 123384371
L98796485 123384371
L98653628 123455800
" />
<path d="M99296485 124312942
L99153628 124384371
L98796485 124384371
L98653628 124312942
L98582200 124170085
L98582200 124027228
L98653628 123884371
L98796485 123812942
L99153628 123812942
L99296485 123741514
" />
<path d="M100010771 124384371
L100010771 123384371
" />
<path d="M100010771 123527228
L100082200 123455800
L100225057 123384371
L100439342 123384371
L100582200 123455800
L100653628 123598657
L100653628 124384371
" />
<path d="M100653628 123598657
L100725057 123455800
L100867914 123384371
L101082200 123384371
L101225057 123455800
L101296485 123598657
L101296485 124384371
" />
<path d="M102582200 124312942
L102439342 124384371
L102153628 124384371
L102010771 124312942
L101939342 124170085
L101939342 123598657
L102010771 123455800
L102153628 123384371
L102439342 123384371
L102582200 123455800
L102653628 123598657
L102653628 123741514
L101939342 123884371
" />
<path d="M103296485 124384371
L103296485 123384371
" />
<path d="M103296485 123670085
L103367914 123527228
L103439342 123455800
L103582200 123384371
L103725057 123384371
" />
<path d="M104867914 124384371
L104867914 123598657
L104796485 123455800
L104653628 123384371
L104367914 123384371
L104225057 123455800
" />
<path d="M104867914 124312942
L104725057 124384371
L104367914 124384371
L104225057 124312942
L104153628 124170085
L104153628 124027228
L104225057 123884371
L104367914 123812942
L104725057 123812942
L104867914 123741514
" />
<path d="M105582200 124384371
L105582200 122884371
" />
<path d="M105582200 123455800
L105725057 123384371
L106010771 123384371
L106153628 123455800
L106225057 123527228
L106296485 123670085
L106296485 124098657
L106225057 124241514
L106153628 124312942
L106010771 124384371
L105725057 124384371
L105582200 124312942
" />
<path d="M107153628 124384371
L107010771 124312942
L106939342 124241514
L106867914 124098657
L106867914 123670085
L106939342 123527228
L107010771 123455800
L107153628 123384371
L107367914 123384371
L107510771 123455800
L107582200 123527228
L107653628 123670085
L107653628 124098657
L107582200 124241514
L107510771 124312942
L107367914 124384371
L107153628 124384371
" />
<path d="M108939342 124384371
L108939342 123598657
L108867914 123455800
L108725057 123384371
L108439342 123384371
L108296485 123455800
" />
<path d="M108939342 124312942
L108796485 124384371
L108439342 124384371
L108296485 124312942
L108225057 124170085
L108225057 124027228
L108296485 123884371
L108439342 123812942
L108796485 123812942
L108939342 123741514
" />
<path d="M109653628 124384371
L109653628 123384371
" />
<path d="M109653628 123670085
L109725057 123527228
L109796485 123455800
L109939342 123384371
L110082200 123384371
" />
<path d="M111225057 124384371
L111225057 122884371
" />
<path d="M111225057 124312942
L111082200 124384371
L110796485 124384371
L110653628 124312942
L110582200 124241514
L110510771 124098657
L110510771 123670085
L110582200 123527228
L110653628 123455800
L110796485 123384371
L111082200 123384371
L111225057 123455800
" />
<path d="M111939342 124241514
L112010771 124312942
L111939342 124384371
L111867914 124312942
L111939342 124241514
L111939342 124384371
" />
<path d="M112653628 124384371
L112653628 122884371
" />
<path d="M112796485 123812942
L113225057 124384371
" />
<path d="M113225057 123384371
L112653628 123955800
" />
<path d="M113867914 124384371
L113867914 123384371
" />
<path d="M113867914 122884371
L113796485 122955800
L113867914 123027228
L113939342 122955800
L113867914 122884371
L113867914 123027228
" />
<path d="M115225057 124312942
L115082200 124384371
L114796485 124384371
L114653628 124312942
L114582200 124241514
L114510771 124098657
L114510771 123670085
L114582200 123527228
L114653628 123455800
L114796485 123384371
L115082200 123384371
L115225057 123455800
" />
<path d="M116510771 124384371
L116510771 123598657
L116439342 123455800
L116296485 123384371
L116010771 123384371
L115867914 123455800
" />
<path d="M116510771 124312942
L116367914 124384371
L116010771 124384371
L115867914 124312942
L115796485 124170085
L115796485 124027228
L115867914 123884371
L116010771 123812942
L116367914 123812942
L116510771 123741514
" />
<path d="M117867914 124384371
L117867914 122884371
" />
<path d="M117867914 124312942
L117725057 124384371
L117439342 124384371
L117296485 124312942
L117225057 124241514
L117153628 124098657
L117153628 123670085
L117225057 123527228
L117296485 123455800
L117439342 123384371
L117725057 123384371
L117867914 123455800
" />
<path d="M118225057 124527228
L119367914 124527228
" />
<path d="M119725057 123384371
L119725057 124884371
" />
<path d="M119725057 123455800
L119867914 123384371
L120153628 123384371
L120296485 123455800
L120367914 123527228
L120439342 123670085
L120439342 124098657
L120367914 124241514
L120296485 124312942
L120153628 124384371
L119867914 124384371
L119725057 124312942
" />
<path d="M121725057 124312942
L121582200 124384371
L121296485 124384371
L121153628 124312942
L121082200 124241514
L121010771 124098657
L121010771 123670085
L121082200 123527228
L121153628 123455800
L121296485 123384371
L121582200 123384371
L121725057 123455800
" />
<path d="M122367914 124384371
L122367914 122884371
" />
<path d="M122367914 123455800
L122510771 123384371
L122796485 123384371
L122939342 123455800
L123010771 123527228
L123082200 123670085
L123082200 124098657
L123010771 124241514
L122939342 124312942
L122796485 124384371
L122510771 124384371
L122367914 124312942
" />
</g></g>
<g style="fill:#000000; fill-opacity:0.0; 
stroke:#000000; stroke-width:21200.000000; stroke-opacity:1; 
stroke-linecap:round; stroke-linejoin:round;">
</g>
<g style="fill:#000000; fill-opacity:0.0; 
stroke:#000000; stroke-width:150000.000000; stroke-opacity:1; 
stroke-linecap:round; stroke-linejoin:round;">
<path d="M90007200 119505800
L198007200 119505800
" />
</g>
<g style="fill:#000000; fill-opacity:0.0; 
stroke:#000000; stroke-width:21200.000000; stroke-opacity:1; 
stroke-linecap:round; stroke-linejoin:round;">
</g>
<g style="fill:#000000; fill-opacity:0.0; 
stroke:#000000; stroke-width:150000.000000; stroke-opacity:1; 
stroke-linecap:round; stroke-linejoin:round;">
<text x="91007200.000000" y="121755800.000000"
textLength="8221429.000000" font-size="2000000.000000" lengthAdjust="spacingAndGlyphs"
text-anchor="start" opacity="0">Sheet: </text>
<g class="stroked-text"><desc>Sheet: </desc>
<path d="M91367914 121612942
L91582200 121684371
L91939342 121684371
L92082200 121612942
L92153628 121541514
L92225057 121398657
L92225057 121255800
L92153628 121112942
L92082200 121041514
L91939342 120970085
L91653628 120898657
L91510771 120827228
L91439342 120755800
L91367914 120612942
L91367914 120470085
L91439342 120327228
L91510771 120255800
L91653628 120184371
L92010771 120184371
L92225057 120255800
" />
<path d="M92867914 121684371
L92867914 120184371
" />
<path d="M93510771 121684371
L93510771 120898657
L93439342 120755800
L93296485 120684371
L93082200 120684371
L92939342 120755800
L92867914 120827228
" />
<path d="M94796485 121612942
L94653628 121684371
L94367914 121684371
L94225057 121612942
L94153628 121470085
L94153628 120898657
L94225057 120755800
L94367914 120684371
L94653628 120684371
L94796485 120755800
L94867914 120898657
L94867914 121041514
L94153628 121184371
" />
<path d="M96082200 121612942
L95939342 121684371
L95653628 121684371
L95510771 121612942
L95439342 121470085
L95439342 120898657
L95510771 120755800
L95653628 120684371
L95939342 120684371
L96082200 120755800
L96153628 120898657
L96153628 121041514
L95439342 121184371
" />
<path d="M96582200 120684371
L97153628 120684371
" />
<path d="M96796485 120184371
L96796485 121470085
L96867914 121612942
L97010771 121684371
L97153628 121684371
" />
<path d="M97653628 121541514
L97725057 121612942
L97653628 121684371
L97582200 121612942
L97653628 121541514
L97653628 121684371
" />
<path d="M97653628 120755800
L97725057 120827228
L97653628 120898657
L97582200 120827228
L97653628 120755800
L97653628 120898657
" />
</g></g>
<g style="fill:#000000; fill-opacity:0.0; 
stroke:#000000; stroke-width:21200.000000; stroke-opacity:1; 
stroke-linecap:round; stroke-linejoin:round;">
</g>
<g style="fill:#000000; fill-opacity:0.0; 
stroke:#000000; stroke-width:300000.000000; stroke-opacity:1; 
stroke-linecap:round; stroke-linejoin:round;">
<text x="91007200.000000" y="118755800.000000"
textLength="150000.000000" font-size="2000000.000000" lengthAdjust="spacingAndGlyphs"
text-anchor="start" opacity="0"></text>
<g class="stroked-text"><desc></desc>
</g></g>
<g style="fill:#000000; fill-opacity:0.0; 
stroke:#000000; stroke-width:21200.000000; stroke-opacity:1; 
stroke-linecap:round; stroke-linejoin:round;">
</g>
<g style="fill:#000000; fill-opacity:0.0; 
stroke:#000000; stroke-width:150000.000000; stroke-opacity:1; 
stroke-linecap:round; stroke-linejoin:round;">
<text x="91007200.000000" y="115755800.000000"
textLength="300000.000000" font-size="2000000.000000" lengthAdjust="spacingAndGlyphs"
text-anchor="start" opacity="0"></text>
<g class="stroked-text"><desc></desc>
</g></g>
<g style="fill:#000000; fill-opacity:0.0; 
stroke:#000000; stroke-width:21200.000000; stroke-opacity:1; 
stroke-linecap:round; stroke-linejoin:round;">
</g>
<g style="fill:#000000; fill-opacity:0.0; 
stroke:#000000; stroke-width:150000.000000; stroke-opacity:1; 
stroke-linecap:round; stroke-linejoin:round;">
<text x="91007200.000000" y="112755800.000000"
textLength="150000.000000" font-size="2000000.000000" lengthAdjust="spacingAndGlyphs"
text-anchor="start" opacity="0"></text>
<g class="stroked-text"><desc></desc>
</g></g>
<g style="fill:#000000; fill-opacity:0.0; 
stroke:#000000; stroke-width:21200.000000; stroke-opacity:1; 
stroke-linecap:round; stroke-linejoin:round;">
</g>
<g style="fill:#000000; fill-opacity:0.0; 
stroke:#000000; stroke-width:150000.000000; stroke-opacity:1; 
stroke-linecap:round; stroke-linejoin:round;">
<text x="91007200.000000" y="109755800.000000"
textLength="150000.000000" font-size="2000000.000000" lengthAdjust="spacingAndGlyphs"
text-anchor="start" opacity="0"></text>
<g class="stroked-text"><desc></desc>
</g></g>
<g style="fill:#000000; fill-opacity:0.0; 
stroke:#000000; stroke-width:21200.000000; stroke-opacity:1; 
stroke-linecap:round; stroke-linejoin:round;">
</g>
<g style="fill:#000000; fill-opacity:0.0; 
stroke:#000000; stroke-width:150000.000000; stroke-opacity:1; 
stroke-linecap:round; stroke-linejoin:round;">
<text x="91007200.000000" y="106755800.000000"
textLength="150000.000000" font-size="2000000.000000" lengthAdjust="spacingAndGlyphs"
text-anchor="start" opacity="0"></text>
<g class="stroked-text"><desc></desc>
</g></g>
<g style="fill:#000000; fill-opacity:0.0; 
stroke:#000000; stroke-width:21200.000000; stroke-opacity:1; 
stroke-linecap:round; stroke-linejoin:round;">
</g>
<g style="fill:#000000; fill-opacity:0.0; 
stroke:#000000; stroke-width:150000.000000; stroke-opacity:1; 
stroke-linecap:round; stroke-linejoin:round;">
<path d="M110007200 129505800
L110007200 132505800
" />
</g>
<g style="fill:#000000; fill-opacity:0.0; 
stroke:#000000; stroke-width:21200.000000; stroke-opacity:1; 
stroke-linecap:round; stroke-linejoin:round;">
</g>
<g style="fill:#000000; fill-opacity:0.0; 
stroke:#000000; stroke-width:150000.000000; stroke-opacity:1; 
stroke-linecap:round; stroke-linejoin:round;">
<path d="M174007200 129505800
L174007200 136005800
" />
</g>
<g style="fill:#D0D2CD; fill-opacity:0.0; 
stroke:#D0D2CD; stroke-width:150000.000000; stroke-opacity:1; 
stroke-linecap:round; stroke-linejoin:round;">
<path d="M94002000 44905799
L94002000 45905799
" />
</g>
<g style="fill:#D0D2CD; fill-opacity:0.0; 
stroke:#D0D2CD; stroke-width:100000.000000; stroke-opacity:1; 
stroke-linecap:round; stroke-linejoin:round;">
<path d="M106730800 75082400
L85902800 75082400
" />
</g>
<g style="fill:#D0D2CD; fill-opacity:0.0; 
stroke:#D0D2CD; stroke-width:150000.000000; stroke-opacity:1; 
stroke-linecap:round; stroke-linejoin:round;">
<path d="M85904349 79205811
L85902800 75082400
" />
<path d="M129501999 46405799
L130302000 46405800
" />
<path d="M130302000 46405800
L130302000 79205798
" />
<path d="M130302000 79205798
L129502000 79205798
" />
</g>
<g style="fill:#D0D2CD; fill-opacity:0.0; 
stroke:#D0D2CD; stroke-width:100000.000000; stroke-opacity:1; 
stroke-linecap:round; stroke-linejoin:round;">
<path d="M110312200 70002400
L106730800 70002400
" />
</g>
<g style="fill:#D0D2CD; fill-opacity:0.0; 
stroke:#D0D2CD; stroke-width:150000.000000; stroke-opacity:1; 
stroke-linecap:round; stroke-linejoin:round;">
<path d="M123001998.999999 79705799.000000 A499999.000000 499999.000000 0.0 0 0 122501999.000004 79205801.000001" />
<path d="M94502000 46405799
L99272000 46405799
" />
<path d="M94002000 80705799
L87502000 80705798
" />
<path d="M85902000 52793800
L86740000 51955800
" />
<path d="M87502000 44905799
L94002000 44905799
" />
<path d="M87502000 80705798
L87502000 79205798
" />
<path d="M103272000 47554858
L103272000 46405799
" />
<path d="M122501999 79205799
L94502000 79205799
" />
</g>
<g style="fill:#D0D2CD; fill-opacity:0.0; 
stroke:#D0D2CD; stroke-width:100000.000000; stroke-opacity:1; 
stroke-linecap:round; stroke-linejoin:round;">
<path d="M110286800 54254400
L110312200 70002400
" />
</g>
<g style="fill:#D0D2CD; fill-opacity:0.0; 
stroke:#D0D2CD; stroke-width:150000.000000; stroke-opacity:1; 
stroke-linecap:round; stroke-linejoin:round;">
<path d="M94502000.000000 79205799.000000 A500001.000000 500001.000000 0.0 0 0 94001999.000001 79705798.999998" />
<path d="M123002000 80705799
L123001999 79705799
" />
</g>
<g style="fill:#D0D2CD; fill-opacity:0.0; 
stroke:#D0D2CD; stroke-width:100000.000000; stroke-opacity:1; 
stroke-linecap:round; stroke-linejoin:round;">
<path d="M106730800 70002400
L106730800 75082400
" />
</g>
<g style="fill:#D0D2CD; fill-opacity:0.0; 
stroke:#D0D2CD; stroke-width:150000.000000; stroke-opacity:1; 
stroke-linecap:round; stroke-linejoin:round;">
<path d="M99272000 47554858
L103272000 47554858
" />
<path d="M86740000 46405799
L87502000 46405799
" />
<path d="M86740000 51955800
L86740000 46405799
" />
<path d="M123002000 44905799
L129502000 44905799
" />
<path d="M103272000 46405799
L122501999 46405799
" />
</g>
<g style="fill:#D0D2CD; fill-opacity:0.0; 
stroke:#D0D2CD; stroke-width:100000.000000; stroke-opacity:1; 
stroke-linecap:round; stroke-linejoin:round;">
<path d="M85902800 56794400
L106222800 56769000
" />
<path d="M106222800 56769000
L106222800 54254400
" />
</g>
<g style="fill:#D0D2CD; fill-opacity:0.0; 
stroke:#D0D2CD; stroke-width:150000.000000; stroke-opacity:1; 
stroke-linecap:round; stroke-linejoin:round;">
<path d="M99272000 46405799
L99272000 47554858
" />
<path d="M85902800 56794400
L85902000 52793800
" />
<path d="M87502000 46405799
L87502000 44905799
" />
<path d="M123001999 45905799
L123002000 44905799
" />
</g>
<g style="fill:#D0D2CD; fill-opacity:0.0; 
stroke:#D0D2CD; stroke-width:100000.000000; stroke-opacity:1; 
stroke-linecap:round; stroke-linejoin:round;">
<path d="M106222800 54254400
L110286800 54254400
" />
</g>
<g style="fill:#D0D2CD; fill-opacity:0.0; 
stroke:#D0D2CD; stroke-width:150000.000000; stroke-opacity:1; 
stroke-linecap:round; stroke-linejoin:round;">
<path d="M94002000 79705799
L94002000 80705799
" />
<path d="M122501999.000000 46405798.999999 A499999.000000 499999.000000 0.0 0 0 123001998.999999 45905799.000000" />
<path d="M129502000 44905799
L129501999 46405799
" />
<path d="M87502000 79205798
L85904340 79205798
" />
<path d="M129502000 79205798
L129501999 80705798
" />
<path d="M94002000.000001 45905799.000000 A500000.000000 500000.000000 0.0 0 0 94502000.000000 46405800.000000" />
<path d="M129501999 80705798
L123002000 80705799
" />
<g >
</g>
<g >
</g>
<g >
</g>
<g >
</g>
<g >
</g>
<g >
</g>
<g >
</g>
<g >
</g>
<g >
</g>
<g >
</g>
<g >
</g>
</g> 
</svg>
