<?xml version="1.0" standalone="no"?>
 <!DOCTYPE svg PUBLIC "-//W3C//DTD SVG 1.1//EN" 
 "http://www.w3.org/Graphics/SVG/1.1/DTD/svg11.dtd"> 
<svg
  xmlns:svg="http://www.w3.org/2000/svg"
  xmlns="http://www.w3.org/2000/svg"
  xmlns:xlink="http://www.w3.org/1999/xlink"
  version="1.1"
  width="4.478020cm" height="3.611880cm" viewBox="0 0 44780200 36118800">
<title>SVG Picture created as mainboard-Edge_Cuts.svg date 2022/02/22 22:02:30 </title>
  <desc>Picture generated by PCBNEW </desc>
<g style="fill:#000000; fill-opacity:1.000000;stroke:#000000; stroke-opacity:1.000000;
stroke-linecap:round; stroke-linejoin:round;"
 transform="translate(0 0) scale(1 1)">
</g>
<g style="fill:#000000; fill-opacity:0.0; 
stroke:#000000; stroke-width:0.000000; stroke-opacity:1; 
stroke-linecap:round; stroke-linejoin:round;">
</g>
<g style="fill:#000000; fill-opacity:0.0; 
stroke:#000000; stroke-width:150000.000000; stroke-opacity:1; 
stroke-linecap:round; stroke-linejoin:round;">
<path d="M1103860 18635000
L265860 19473000
" />
<path d="M37365858.999999 34875000.000000 A500001.000000 500001.000000 0.0 0 0 36865859.000000 34375000.000001" />
<path d="M36865859.000000 1574999.999999 A500001.000000 500001.000000 0.0 0 0 37365858.999999 1075000.000000" />
<path d="M8365860.000001 1075000.000000 A500001.000000 500001.000000 0.0 0 0 8865860.000000 1574999.999999" />
<path d="M8365860 35875000
L8365860 34875000
" />
<path d="M8865860 34375000
L36865859 34375000
" />
<path d="M1103860 25714999
L1103860 34374999
" />
<path d="M1865860 1575000
L1103860 1575000
" />
<path d="M36865859 1575000
L17635860 1575000
" />
<path d="M8365860 1075000
L8365860 75000
" />
<path d="M1103860 1575000
L1103860 18635000
" />
<path d="M44665860 1575001
L43865859 1575000
" />
<path d="M1103860 25714999
L265860 24949059
" />
<path d="M37365860 35875000
L43865859 35874999
" />
<path d="M43865860 75000
L37365860 75000
" />
<path d="M13635860 2724059
L13635860 1575000
" />
<path d="M37365860 75000
L37365859 1075000
" />
<path d="M1865860 35874999
L8365860 35875000
" />
<path d="M265860 19473000
L265860 24949059
" />
<path d="M8365860 75000
L1865860 75000
" />
<path d="M8865860.000000 34375000.000001 A500001.000000 500001.000000 0.0 0 0 8365860.000001 34875000.000000" />
<path d="M17635860 2724059
L13635860 2724059
" />
<path d="M13635860 1575000
L8865860 1575000
" />
<path d="M1865860 34374999
L1865860 35874999
" />
<path d="M43865860 34374999
L44665860 34374999
" />
<path d="M43865859 35874999
L43865860 34374999
" />
<path d="M1865860 75000
L1865860 1575000
" />
<path d="M44665860 34374999
L44665860 1575001
" />
<path d="M17635860 1575000
L17635860 2724059
" />
<path d="M1103860 34374999
L1865860 34374999
" />
<path d="M43865859 1575000
L43865860 75000
" />
<path d="M37365859 34875000
L37365860 35875000
" />
<g >
</g>
<g >
</g>
<g >
</g>
<g >
</g>
<g >
</g>
<g >
</g>
<g >
</g>
<g >
</g>
<g >
</g>
<g >
</g>
<g >
</g>
<g >
</g>
<g >
</g>
<g >
</g>
<g >
</g>
<g >
</g>
<g >
</g>
<g >
</g>
<g >
</g>
<g >
</g>
<g >
</g>
<g >
</g>
<g >
</g>
<g >
</g>
<g >
</g>
<g >
</g>
<g >
</g>
<g >
</g>
<g >
</g>
<g >
</g>
<g >
</g>
<g >
</g>
<g >
</g>
<g >
</g>
<g >
</g>
<g >
</g>
<g >
</g>
<g >
</g>
<g >
</g>
<g >
</g>
<g >
</g>
<g >
</g>
<g >
</g>
<g >
</g>
<g >
</g>
<g >
</g>
<g >
</g>
<g >
</g>
<g >
</g>
<g >
</g>
<g >
</g>
<g >
</g>
<g >
</g>
<g >
</g>
<g >
</g>
<g >
</g>
<g >
</g>
<g >
</g>
<g >
</g>
<g >
</g>
<g >
</g>
<g >
</g>
<g >
</g>
<g >
</g>
<g >
</g>
<g >
</g>
<g >
</g>
<g >
</g>
<g >
</g>
<g >
</g>
<g >
</g>
<g >
</g>
<g >
</g>
<g >
</g>
<g >
</g>
<g >
</g>
<g >
</g>
</g> 
</svg>
