<?xml version="1.0" standalone="no"?>
 <!DOCTYPE svg PUBLIC "-//W3C//DTD SVG 1.1//EN" 
 "http://www.w3.org/Graphics/SVG/1.1/DTD/svg11.dtd"> 
<svg
  xmlns:svg="http://www.w3.org/2000/svg"
  xmlns="http://www.w3.org/2000/svg"
  xmlns:xlink="http://www.w3.org/1999/xlink"
  version="1.1"
  width="5.024120cm" height="5.024120cm" viewBox="0 0 50241200 50241200">
<title>SVG Picture created as Plus Y Edge Cuts-Edge_Cuts.svg date 2022/02/22 21:33:15 </title>
  <desc>Picture generated by PCBNEW </desc>
<g style="fill:#000000; fill-opacity:1.000000;stroke:#000000; stroke-opacity:1.000000;
stroke-linecap:round; stroke-linejoin:round;"
 transform="translate(0 0) scale(1 1)">
</g>
<g style="fill:#000000; fill-opacity:0.0; 
stroke:#000000; stroke-width:0.000000; stroke-opacity:1; 
stroke-linecap:round; stroke-linejoin:round;">
</g>
<g style="fill:#D0D2CD; fill-opacity:0.0; 
stroke:#D0D2CD; stroke-width:0.000000; stroke-opacity:1; 
stroke-linecap:round; stroke-linejoin:round;">
</g>
<g style="fill:#D0D2CD; fill-opacity:0.0; 
stroke:#D0D2CD; stroke-width:50000.000000; stroke-opacity:1; 
stroke-linecap:round; stroke-linejoin:round;">
<path d="M10625000 25725000
L10625000 24225000
" />
<path d="M14125000 25725000
L10625000 25725000
" />
<path d="M14125000 24225000
L14125000 25725000
" />
<path d="M10625000 24225000
L14125000 24225000
" />
<path d="M9125000 24225000
L7625000 24225000
" />
<path d="M9125000 25775000
L9125000 24225000
" />
<path d="M7625000 25775000
L9125000 25775000
" />
<path d="M7625000 24225000
L7625000 25775000
" />
</g>
<g style="fill:#D0D2CD; fill-opacity:0.0; 
stroke:#D0D2CD; stroke-width:250000.000000; stroke-opacity:1; 
stroke-linecap:round; stroke-linejoin:round;">
<path d="M50125000 125000
L125000 125000
" />
<path d="M125000 50125000
L50125000 50125000
" />
<path d="M125000 125000
L125000 50125000
" />
<circle cx="45025000.000000" cy="5225000.000000" r="1000000.000000" /> 
<circle cx="5225000.000000" cy="45025000.000000" r="1000000.000000" /> 
<circle cx="5225000.000000" cy="5225000.000000" r="1000000.000000" /> 
<circle cx="45025000.000000" cy="45025000.000000" r="1000000.000000" /> 
<path d="M50125000 50125000
L50125000 125000
" />
<g >
</g>
<g >
</g>
<g >
</g>
</g> 
</svg>
