<?xml version="1.0" standalone="no"?>
 <!DOCTYPE svg PUBLIC "-//W3C//DTD SVG 1.1//EN" 
 "http://www.w3.org/Graphics/SVG/1.1/DTD/svg11.dtd"> 
<svg
  xmlns:svg="http://www.w3.org/2000/svg"
  xmlns="http://www.w3.org/2000/svg"
  xmlns:xlink="http://www.w3.org/1999/xlink"
  version="1.1"
  width="4.859020cm" height="4.859020cm" viewBox="0 0 48590200 48590200">
<title>SVG Picture created as Z Edge Cuts-Edge_Cuts.svg date 2022/02/22 21:47:33 </title>
  <desc>Picture generated by PCBNEW </desc>
<g style="fill:#000000; fill-opacity:1.000000;stroke:#000000; stroke-opacity:1.000000;
stroke-linecap:round; stroke-linejoin:round;"
 transform="translate(0 0) scale(1 1)">
</g>
<g style="fill:#000000; fill-opacity:0.0; 
stroke:#000000; stroke-width:0.000000; stroke-opacity:1; 
stroke-linecap:round; stroke-linejoin:round;">
</g>
<g style="fill:#D0D2CD; fill-opacity:0.0; 
stroke:#D0D2CD; stroke-width:0.000000; stroke-opacity:1; 
stroke-linecap:round; stroke-linejoin:round;">
</g>
<g style="fill:#D0D2CD; fill-opacity:0.0; 
stroke:#D0D2CD; stroke-width:200000.000000; stroke-opacity:1; 
stroke-linecap:round; stroke-linejoin:round;">
<circle cx="45000000.000000" cy="33500000.000000" r="1100000.000000" /> 
<circle cx="5200000.000000" cy="33500000.000000" r="1100000.000000" /> 
<path d="M16500000.000000 13950000.000000 A1000000.000000 1000000.000000 0.0 0 0 17500000.000000 12950000.000000" />
<path d="M9300000.000000 12950000.000000 A1000000.000000 1000000.000000 0.0 0 0 10300000.000000 13950000.000000" />
<path d="M17500000.000000 11150000.000000 A1000000.000000 1000000.000000 0.0 0 0 16500000.000000 10150000.000000" />
<path d="M10300000.000000 10150000.000000 A1000000.000000 1000000.000000 0.0 0 0 9300000.000000 11150000.000000" />
<circle cx="5200000.000000" cy="15100000.000000" r="1100000.000000" /> 
<path d="M16500000 10150000
L10300000 10150000
" />
<path d="M48500000 100000
L48500000 48500000
" />
<path d="M48500000 48500000
L100000 48500000
" />
<path d="M100000 48500000
L100000 100000
" />
<path d="M100000 100000
L48500000 100000
" />
<path d="M10300000 13950000
L16500000 13950000
" />
<circle cx="45000000.000000" cy="15100000.000000" r="1100000.000000" /> 
<path d="M17500000 12950000
L17500000 11150000
" />
<path d="M9300000 11150000
L9300000 12950000
" />
<g >
</g>
<g >
</g>
<g >
</g>
</g> 
</svg>
